<svg xmlns="http://www.w3.org/2000/svg" width="1024" height="1024" viewBox="0 0 1024 1024" version="1.1"><path d="M 220.714 108.250 C 217.022 160.452, 183.072 206.711, 138 220.955 C 130.707 223.259, 116.190 225.997, 111.250 225.999 L 108 226 108 259.875 C 108 278.506, 108.281 295.156, 108.625 296.875 C 109.250 299.998, 109.255 300, 115.875 300 C 124.473 300, 144.114 296.751, 155.379 293.466 C 228.543 272.131, 282.347 207.415, 293.362 127.500 C 294.196 121.450, 295.056 112.787, 295.274 108.250 L 295.669 100 258.483 100 L 221.297 100 220.714 108.250 M 464.607 101.582 C 464.273 102.452, 464 107.289, 463.999 112.332 C 463.998 129.260, 460.946 155.505, 456.421 177.500 C 432.797 292.349, 358.494 390.205, 257.500 439.477 C 212.894 461.239, 173.700 471.083, 117.750 474.578 L 108 475.187 108 512.093 L 108 549 117.250 548.996 C 132.316 548.989, 161.445 545.992, 181 542.436 C 316.632 517.772, 434.190 425.617, 494.730 296.500 C 514.433 254.478, 527.410 211.377, 533.997 166.085 C 536.449 149.226, 538.967 120.034, 538.987 108.250 L 539 100 502.107 100 C 469.388 100, 465.145 100.179, 464.607 101.582 M 707.600 116.250 C 706.668 138.606, 705.305 155.646, 702.940 174.500 C 680.706 351.801, 580.906 510.171, 430 607.620 C 365.940 648.988, 290.916 678.791, 216.491 692.436 C 187.344 697.779, 148.699 702, 128.920 702 C 124.175 702, 117.527 702.289, 114.147 702.642 L 108 703.285 108 740.300 L 108 777.316 127.750 776.644 C 301.001 770.753, 460.702 701.424, 583 579.014 C 674.517 487.413, 736.728 374.873, 765.426 249 C 775.161 206.305, 782 150.680, 782 114.205 L 782 100 745.139 100 L 708.278 100 707.600 116.250 M 660.108 741.082 C 648.139 743.432, 634.863 753.416, 629.419 764.160 C 624.067 774.721, 624.022 775.203, 624.011 822.645 C 624.001 863.715, 624.137 867.232, 625.964 873.145 C 630.410 887.530, 640.362 897.743, 655.642 903.601 C 660.227 905.358, 665.544 905.480, 750.335 905.772 C 804.325 905.957, 842.943 905.696, 847.122 905.117 C 865.556 902.563, 880.861 888.849, 885.378 870.841 C 887.755 861.363, 887.787 783.845, 885.418 774.644 C 881.080 757.799, 866.705 744.102, 850.114 741.005 C 843.447 739.761, 666.470 739.832, 660.108 741.082" stroke="none" fill="#fbfbfb" fill-rule="evenodd"/><path d="M 128 37.436 C 99.219 42.802, 75.611 57.543, 57.986 81.152 C 51.526 89.806, 44.179 104.225, 41.125 114.241 C 35.689 132.076, 36.006 107.404, 36.006 512 C 36.006 916.596, 35.689 891.924, 41.125 909.759 C 44.179 919.775, 51.526 934.194, 57.986 942.848 C 75.811 966.725, 99.432 981.370, 128.500 986.567 C 140.529 988.718, 883.471 988.718, 895.500 986.567 C 924.568 981.370, 948.189 966.725, 966.014 942.848 C 972.474 934.194, 979.821 919.775, 982.875 909.759 C 988.311 891.924, 987.994 916.596, 987.994 512 C 987.994 107.404, 988.311 132.076, 982.875 114.241 C 979.821 104.225, 972.474 89.806, 966.014 81.152 C 951.362 61.525, 932.423 47.901, 910.094 40.924 C 893.444 35.721, 916.109 35.994, 511 36.113 C 220.748 36.199, 133.011 36.502, 128 37.436 M 220.714 108.250 C 217.022 160.452, 183.072 206.711, 138 220.955 C 130.707 223.259, 116.190 225.997, 111.250 225.999 L 108 226 108 259.875 C 108 278.506, 108.281 295.156, 108.625 296.875 C 109.250 299.998, 109.255 300, 115.875 300 C 124.473 300, 144.114 296.751, 155.379 293.466 C 228.543 272.131, 282.347 207.415, 293.362 127.500 C 294.196 121.450, 295.056 112.787, 295.274 108.250 L 295.669 100 258.483 100 L 221.297 100 220.714 108.250 M 464.607 101.582 C 464.273 102.452, 464 107.289, 463.999 112.332 C 463.998 129.260, 460.946 155.505, 456.421 177.500 C 432.797 292.349, 358.494 390.205, 257.500 439.477 C 212.894 461.239, 173.700 471.083, 117.750 474.578 L 108 475.187 108 512.093 L 108 549 117.250 548.996 C 132.316 548.989, 161.445 545.992, 181 542.436 C 316.632 517.772, 434.190 425.617, 494.730 296.500 C 514.433 254.478, 527.410 211.377, 533.997 166.085 C 536.449 149.226, 538.967 120.034, 538.987 108.250 L 539 100 502.107 100 C 469.388 100, 465.145 100.179, 464.607 101.582 M 707.600 116.250 C 706.668 138.606, 705.305 155.646, 702.940 174.500 C 680.706 351.801, 580.906 510.171, 430 607.620 C 365.940 648.988, 290.916 678.791, 216.491 692.436 C 187.344 697.779, 148.699 702, 128.920 702 C 124.175 702, 117.527 702.289, 114.147 702.642 L 108 703.285 108 740.300 L 108 777.316 127.750 776.644 C 301.001 770.753, 460.702 701.424, 583 579.014 C 674.517 487.413, 736.728 374.873, 765.426 249 C 775.161 206.305, 782 150.680, 782 114.205 L 782 100 745.139 100 L 708.278 100 707.600 116.250 M 660.108 741.082 C 648.139 743.432, 634.863 753.416, 629.419 764.160 C 624.067 774.721, 624.022 775.203, 624.011 822.645 C 624.001 863.715, 624.137 867.232, 625.964 873.145 C 630.410 887.530, 640.362 897.743, 655.642 903.601 C 660.227 905.358, 665.544 905.480, 750.335 905.772 C 804.325 905.957, 842.943 905.696, 847.122 905.117 C 865.556 902.563, 880.861 888.849, 885.378 870.841 C 887.755 861.363, 887.787 783.845, 885.418 774.644 C 881.080 757.799, 866.705 744.102, 850.114 741.005 C 843.447 739.761, 666.470 739.832, 660.108 741.082" stroke="none" fill="#448c5c" fill-rule="evenodd"/></svg>